HIERARCHY
ROOT Hips
{
	OFFSET 0.00000 0.00000 0.00000
	CHANNELS 6 Xposition Yposition Zposition Zrotation Yrotation Xrotation 
	JOINT LHipJoint
	{
		OFFSET 0 0 0
		CHANNELS 3 Zrotation Yrotation Xrotation
		JOINT LeftUpLeg
		{
			OFFSET 1.23340 -1.80723 0.69510
			CHANNELS 3 Zrotation Yrotation Xrotation
			JOINT LeftLeg
			{
				OFFSET 2.50056 -6.87023 0.00000
				CHANNELS 3 Zrotation Yrotation Xrotation
				JOINT LeftFoot
				{
					OFFSET 2.85931 -7.85591 0.00000
					CHANNELS 3 Zrotation Yrotation Xrotation
					JOINT LeftToeBase
					{
						OFFSET 0.21001 -0.57700 2.07823
						CHANNELS 3 Zrotation Yrotation Xrotation
						End Site
						{
							OFFSET 0.00000 -0.00000 1.08338
						}
					}
				}
			}
		}
	}
	JOINT RHipJoint
	{
		OFFSET 0 0 0
		CHANNELS 3 Zrotation Yrotation Xrotation
		JOINT RightUpLeg
		{
			OFFSET -1.40842 -1.80723 0.69510
			CHANNELS 3 Zrotation Yrotation Xrotation
			JOINT RightLeg
			{
				OFFSET -2.54876 -7.00266 0.00000
				CHANNELS 3 Zrotation Yrotation Xrotation
				JOINT RightFoot
				{
					OFFSET -2.74835 -7.55104 0.00000
					CHANNELS 3 Zrotation Yrotation Xrotation
					JOINT RightToeBase
					{
						OFFSET -0.22633 -0.62184 2.00890
						CHANNELS 3 Zrotation Yrotation Xrotation
						End Site
						{
							OFFSET -0.00000 -0.00000 1.05493
						}
					}
				}
			}
		}
	}
	JOINT LowerBack
	{
		OFFSET 0 0 0
		CHANNELS 3 Zrotation Yrotation Xrotation
		JOINT Spine
		{
			OFFSET -0.02340 2.02740 -0.12728
			CHANNELS 3 Zrotation Yrotation Xrotation
			JOINT Spine1
			{
				OFFSET -0.00862 2.03614 -0.01188
				CHANNELS 3 Zrotation Yrotation Xrotation
				JOINT Neck
				{
					OFFSET 0 0 0
					CHANNELS 3 Zrotation Yrotation Xrotation
					JOINT Neck1
					{
						OFFSET 0.03380 1.76650 0.27670
						CHANNELS 3 Zrotation Yrotation Xrotation
						JOINT Head
						{
							OFFSET -0.01114 1.80516 -0.21451
							CHANNELS 3 Zrotation Yrotation Xrotation
							End Site
							{
								OFFSET -0.00766 1.81942 -0.10287
							}
						}
					}
				}
				JOINT LeftShoulder
				{
					OFFSET 0 0 0
					CHANNELS 3 Zrotation Yrotation Xrotation
					JOINT LeftArm
					{
						OFFSET 3.22358 1.39475 0.18630
						CHANNELS 3 Zrotation Yrotation Xrotation
						JOINT LeftForeArm
						{
							OFFSET 5.45077 -0.00000 0.00000
							CHANNELS 3 Zrotation Yrotation Xrotation
							JOINT LeftHand
							{
								OFFSET 3.05488 -0.00000 0.00000
								CHANNELS 3 Zrotation Yrotation Xrotation
								JOINT LeftFingerBase
								{
									OFFSET 0 0 0
									CHANNELS 3 Zrotation Yrotation Xrotation
									JOINT LeftHandIndex1
									{
										OFFSET 0.63882 -0.00000 0.00000
										CHANNELS 3 Zrotation Yrotation Xrotation
										End Site
										{
											OFFSET 0.51503 -0.00000 0.00000
										}
									}
								}
								JOINT LThumb
								{
									OFFSET 0 0 0
									CHANNELS 3 Zrotation Yrotation Xrotation
									End Site
									{
										OFFSET 0.52290 -0.00000 0.52290
									}
								}
							}
						}
					}
				}
				JOINT RightShoulder
				{
					OFFSET 0 0 0
					CHANNELS 3 Zrotation Yrotation Xrotation
					JOINT RightArm
					{
						OFFSET -3.57143 1.14055 0.30691
						CHANNELS 3 Zrotation Yrotation Xrotation
						JOINT RightForeArm
						{
							OFFSET -4.88702 -0.00000 -0.00000
							CHANNELS 3 Zrotation Yrotation Xrotation
							JOINT RightHand
							{
								OFFSET -3.22603 -0.00000 0.00000
								CHANNELS 3 Zrotation Yrotation Xrotation
								JOINT RightFingerBase
								{
									OFFSET 0 0 0
									CHANNELS 3 Zrotation Yrotation Xrotation
									JOINT RightHandIndex1
									{
										OFFSET -0.71629 -0.00000 0.00000
										CHANNELS 3 Zrotation Yrotation Xrotation
										End Site
										{
											OFFSET -0.57749 -0.00000 0.00000
										}
									}
								}
								JOINT RThumb
								{
									OFFSET 0 0 0
									CHANNELS 3 Zrotation Yrotation Xrotation
									End Site
									{
										OFFSET -0.58631 -0.00000 0.58631
									}
								}
							}
						}
					}
				}
			}
		}
	}
}
MOTION
Frames: 11
Frame Time: .0083333
-6.6129 18.1924 -15.3815 2.9947 -9.1428 11.0408 0.0000 0.0000 0.0000 -24.5069 5.6159 -21.6455 2.7181 10.2241 29.7054 1.5801 -4.0958 -22.7938 0.9542 -6.2206 -17.4258 0.0000 0.0000 0.0000 19.8975 -13.4243 -26.0132 -4.6945 -13.0312 39.4855 -2.3416 -7.3561 -32.2545 -0.0429 1.3370 -3.6765 -4.0829 -1.5916 -10.1785 -0.5485 -1.6756 -2.4440 1.5111 -0.8627 3.2571 -1.7147 -6.2050 -16.4999 0.5990 -8.3598 20.8825 -0.5914 -3.9765 9.4031 -0.0000 -0.0000 0.0000 -79.6658 10.1658 40.2960 18.9364 -29.3395 -4.9996 -0.0000 0.0000 -12.7711 11.1420 24.2717 4.6286 -7.1250 0.0000 -0.0000 -19.0044 53.6441 -4.1562 -0.0000 -0.0000 0.0000 77.0909 -1.3825 37.0049 -17.3925 27.3723 -4.2662 0.0000 0.0000 0.0136 -20.9093 9.2945 -3.5309 7.1250 -0.0000 -0.0000 4.3170 -20.0568 2.5820
-6.5822 18.1905 -15.3718 2.9485 -8.2933 10.9175 0.0000 0.0000 0.0000 -24.3154 5.3631 -21.2812 2.6887 10.1732 29.5395 1.5204 -4.4866 -22.2852 1.1728 -6.8741 -19.3428 0.0000 0.0000 0.0000 19.7334 -13.4114 -25.6791 -4.7297 -13.0728 39.6415 -2.3139 -7.4446 -32.1421 -0.0400 1.2917 -3.5517 -3.9860 -1.4988 -10.0061 -0.6701 -1.5663 -2.4560 1.3491 -0.8052 3.1375 -1.4316 -6.1065 -16.4422 0.4616 -8.2669 20.9459 -0.6699 -3.9262 9.3937 0.0000 0.0000 0.0000 -79.5120 10.1903 40.7673 18.9129 -29.3104 -4.9882 -0.0000 0.0000 -12.7577 9.9547 25.3161 4.2921 -7.1250 0.0000 -0.0000 -20.7518 54.4082 -4.9589 0.0000 0.0000 0.0000 77.2794 -1.5314 37.5012 -17.7056 27.7786 -4.4112 0.0000 -0.0000 -0.3918 -20.9202 9.3105 -3.5390 7.1250 -0.0000 -0.0000 4.3095 -20.0388 2.5792
-6.5433 18.1823 -15.3596 3.1616 -7.6060 10.6718 0.0000 0.0000 0.0000 -24.4611 5.1962 -20.8690 2.6720 10.1441 29.4445 1.4725 -4.5297 -21.9113 1.7228 -8.2632 -23.5163 0.0000 0.0000 0.0000 19.1944 -13.4736 -25.3007 -4.7735 -13.1240 39.8346 -2.2898 -7.3719 -31.9587 -0.0410 1.3070 -3.5940 -4.0371 -1.3438 -9.7768 -0.8877 -1.3583 -2.4334 1.1830 -0.7000 3.0190 -1.2969 -6.0434 -16.4968 0.4385 -8.2138 21.1299 -0.6982 -3.8899 9.4604 0.0000 0.0000 0.0000 -79.3552 10.1855 41.1104 18.9142 -29.3119 -4.9888 -0.0000 0.0000 -12.6015 9.5339 26.3310 4.2604 -7.1250 0.0000 -0.0000 -21.7783 55.2718 -5.6895 0.0000 0.0000 0.0000 77.5554 -1.6745 37.6232 -18.0022 28.1600 -4.5503 0.0000 -0.0000 -0.4278 -20.9604 9.3405 -3.5577 7.1250 -0.0000 -0.0000 4.2812 -20.0042 2.5654
-6.5004 18.1722 -15.3524 3.4911 -6.9305 10.9516 0.0000 0.0000 0.0000 -24.8450 5.0136 -21.1504 2.6679 10.1371 29.4217 1.4541 -5.3750 -21.6748 1.7148 -8.2450 -23.4607 0.0000 0.0000 0.0000 18.6155 -13.4063 -25.5447 -4.8234 -13.1821 40.0541 -2.2537 -7.1592 -31.6239 -0.0287 1.0937 -3.0066 -4.2194 -1.3092 -10.0280 -0.9565 -1.2829 -2.5969 1.2205 -0.6608 2.9858 -1.5501 -5.9403 -16.4838 0.4240 -8.0032 21.2985 -0.6386 -3.8110 9.5263 0.0000 -0.0000 0.0000 -79.5241 10.2203 41.1679 18.8479 -29.2292 -4.9564 -0.0000 0.0000 -12.3859 9.4071 26.4762 4.2243 -7.1250 0.0000 -0.0000 -21.9944 55.3815 -5.8099 0.0000 -0.0000 0.0000 77.3883 -1.7970 38.2577 -18.3158 28.5596 -4.6992 0.0000 -0.0000 -0.7334 -21.0712 9.2418 -3.5409 7.1250 -0.0000 -0.0000 4.2002 -20.1015 2.5075
-6.4640 18.1647 -15.3521 3.1959 -6.2029 11.3122 0.0000 0.0000 0.0000 -24.5236 4.8276 -21.4989 2.6724 10.1448 29.4469 1.4338 -6.2022 -21.4566 1.6763 -8.1566 -23.1906 0.0000 0.0000 0.0000 18.7630 -13.0550 -25.7203 -4.8745 -13.2411 40.2778 -2.2185 -7.1950 -31.4327 -0.0213 0.9415 -2.5879 -3.8387 -1.2418 -10.2539 -0.8691 -1.2274 -2.7344 1.1022 -0.6291 2.9590 -1.6469 -5.7940 -16.4535 0.3267 -7.7495 21.3544 -0.6230 -3.7111 9.5378 -0.0000 -0.0000 0.0000 -79.5714 10.2230 41.2926 18.8024 -29.1724 -4.9341 -0.0000 0.0000 -12.1659 8.7652 26.4597 3.9301 -7.1250 0.0000 -0.0000 -22.6156 55.2420 -5.9081 -0.0000 -0.0000 0.0000 77.2935 -1.8421 38.9639 -18.6634 28.9982 -4.8666 0.0000 -0.0000 -1.1606 -21.0207 9.1434 -3.4944 7.1250 -0.0000 -0.0000 4.2349 -20.2097 2.5180
-6.4319 18.1563 -15.3479 3.0185 -5.4666 11.2994 0.0000 0.0000 0.0000 -24.2937 4.7593 -21.5180 2.6946 10.1835 29.5730 1.4372 -6.8469 -21.4550 1.7504 -8.3257 -23.7077 0.0000 0.0000 0.0000 18.6955 -12.6953 -25.3965 -4.9228 -13.2963 40.4881 -2.2075 -7.1349 -31.3321 -0.0136 0.7519 -2.0665 -3.6052 -1.1767 -10.2106 -0.8796 -1.1658 -2.7182 0.9688 -0.5972 2.9448 -1.4095 -5.5985 -16.6027 0.0955 -7.4839 21.4958 -0.7127 -3.5915 9.5923 0.0000 0.0000 0.0000 -79.4774 10.1245 41.4521 18.7229 -29.0730 -4.8955 -0.0000 0.0000 -11.9567 8.1459 26.3680 3.6376 -7.1250 0.0000 -0.0000 -23.1638 55.0389 -5.9458 0.0000 0.0000 0.0000 77.4047 -1.7766 39.3058 -18.9919 29.4086 -5.0269 0.0000 -0.0000 -1.0947 -20.5552 9.1238 -3.4028 7.1250 -0.0000 -0.0000 4.5685 -20.2620 2.7122
-6.4001 18.1432 -15.3426 3.2473 -4.7065 11.1779 0.0000 0.0000 0.0000 -24.5211 4.8732 -21.5376 2.7256 10.2369 29.7475 1.4499 -7.6860 -21.5405 1.8413 -8.5274 -24.3278 0.0000 0.0000 0.0000 18.1577 -12.5273 -24.9953 -4.9718 -13.3520 40.7009 -2.2012 -6.9509 -31.1903 -0.0086 0.5991 -1.6462 -3.7906 -1.2061 -10.1331 -0.9731 -1.1837 -2.6598 0.9743 -0.6074 2.9650 -1.0998 -5.3598 -16.9427 -0.2419 -7.1531 21.7753 -0.8511 -3.4451 9.7248 0.0000 0.0000 0.0000 -79.4747 10.0415 41.5785 18.6944 -29.0372 -4.8816 -0.0000 0.0000 -12.1391 8.2147 26.5248 3.6888 -7.1250 0.0000 -0.0000 -23.1969 55.1956 -6.0455 0.0000 0.0000 0.0000 77.4879 -1.6206 39.6347 -19.2875 29.7744 -5.1728 0.0000 -0.0000 -0.9041 -20.0955 9.1692 -3.3365 7.1250 -0.0000 -0.0000 4.8987 -20.2445 2.9116
-6.3684 18.1306 -15.3525 2.9919 -3.9063 11.3312 0.0000 0.0000 0.0000 -24.2251 4.8308 -21.8784 2.7570 10.2909 29.9240 1.4395 -8.5532 -21.4796 1.8156 -8.4709 -24.1538 0.0000 0.0000 0.0000 18.2491 -12.1006 -24.8882 -5.0215 -13.4080 40.9155 -2.1578 -7.0617 -30.9888 -0.0056 0.4820 -1.3245 -3.4183 -1.1803 -10.0387 -0.9759 -1.1933 -2.7304 0.7639 -0.6079 2.8332 -0.8602 -5.1478 -17.1463 -0.4347 -6.8743 21.9063 -0.9279 -3.3151 9.7909 0.0000 0.0000 0.0000 -79.4078 10.0014 41.9243 18.7278 -29.0790 -4.8978 -0.0000 0.0000 -12.7889 8.9991 26.6068 4.0570 -7.1250 0.0000 -0.0000 -22.4795 55.4226 -5.9706 0.0000 0.0000 0.0000 77.6106 -1.5122 40.2317 -19.6248 30.1876 -5.3414 0.0000 -0.0000 -1.2667 -20.3116 9.1530 -3.3696 7.1250 -0.0000 -0.0000 4.7436 -20.2474 2.8184
-6.3387 18.1208 -15.3621 2.7819 -3.1416 11.4534 0.0000 0.0000 0.0000 -23.9732 4.6923 -22.1306 2.7834 10.3359 30.0715 1.4115 -9.3009 -21.3114 1.6989 -8.2086 -23.3496 0.0000 0.0000 0.0000 18.2595 -11.6711 -24.7924 -5.0798 -13.4731 41.1662 -2.1216 -7.0233 -30.7449 -0.0008 0.1857 -0.5103 -3.1153 -1.1309 -9.8951 -0.9817 -1.1656 -2.8092 0.5949 -0.5902 2.6655 -0.7182 -4.9527 -17.2649 -0.5066 -6.6222 21.9906 -0.9472 -3.1926 9.8345 0.0000 -0.0000 0.0000 -79.4178 9.9105 41.6522 18.6368 -28.9649 -4.8537 -0.0000 0.0000 -12.1757 8.8985 26.5398 4.0018 -7.1250 0.0000 -0.0000 -22.5356 55.3414 -5.9412 0.0000 -0.0000 0.0000 77.7173 -1.4710 40.8076 -19.9978 30.6397 -5.5302 0.0000 -0.0000 -1.8104 -20.5041 9.3789 -3.4874 7.1250 -0.0000 -0.0000 4.6083 -19.9950 2.7637
-6.3083 18.1137 -15.3619 2.7941 -2.4098 11.3751 0.0000 0.0000 0.0000 -23.9727 4.5983 -22.0807 2.8054 10.3731 30.1936 1.3937 -9.9494 -21.2324 1.5684 -7.9023 -22.4178 0.0000 0.0000 0.0000 17.9158 -11.3929 -24.4456 -5.1381 -13.5377 41.4161 -2.1285 -6.6338 -30.5678 -0.0015 -0.2463 0.6768 -3.0162 -1.0929 -9.7462 -1.0461 -1.1278 -2.7890 0.4797 -0.5703 2.6001 -0.6596 -4.7257 -17.1674 -0.4974 -6.3190 21.8627 -0.9073 -3.0477 9.7695 0.0000 0.0000 0.0000 -79.4570 9.7670 41.0589 18.4346 -28.7101 -4.7562 -0.0000 0.0000 -10.9806 8.7000 26.2966 3.8782 -7.1250 0.0000 -0.0000 -22.5764 55.0796 -5.8060 0.0000 0.0000 0.0000 77.8642 -1.3609 41.2081 -20.2959 30.9972 -5.6829 0.0000 -0.0000 -2.0000 -20.6053 9.5159 -3.5568 7.1250 -0.0000 -0.0000 4.5378 -19.8427 2.7366
-6.2786 18.1083 -15.3641 2.9214 -1.6624 11.2558 0.0000 0.0000 0.0000 -24.0869 4.3711 -21.8850 2.8100 10.3809 30.2193 1.3669 -10.4910 -21.0921 1.4333 -7.5696 -21.4143 0.0000 0.0000 0.0000 17.4457 -11.1101 -24.0434 -5.2018 -13.6076 41.6876 -2.1482 -6.1706 -30.4358 -0.0102 -0.6514 1.7900 -3.0412 -1.0772 -9.5485 -1.1427 -1.1084 -2.7602 0.3993 -0.5599 2.5190 -0.5605 -4.5098 -16.9221 -0.5790 -6.0179 21.5730 -0.8987 -2.9135 9.6154 -0.0000 0.0000 0.0000 -79.4342 9.6479 41.0520 18.3143 -28.5578 -4.6985 -0.0000 0.0000 -10.9893 9.4045 25.7593 4.1171 -7.1250 0.0000 -0.0000 -21.5541 54.7174 -5.3301 -0.0000 0.0000 0.0000 78.0376 -1.2282 41.5119 -20.6123 31.3730 -5.8468 0.0000 -0.0000 -2.1271 -20.4498 9.5635 -3.5451 7.1250 -0.0000 -0.0000 4.6496 -19.8031 2.8086
